<svg id="Layer_1" data-name="Layer 1" xmlns="http://www.w3.org/2000/svg" viewBox="0 0 94.99 90.4"><defs><style>.cls-1{fill:#343a40;}.cls-2{fill:#fff;}</style></defs><title>awbtech</title><rect class="cls-1" width="94.99" height="90.4"/><path class="cls-2" d="M48.4,62.26c-8.75,0-17.5,0-26.26,0-7.62,0-10.74-4.62-10.86-12.26-.24-14.39,0-28.78-.12-43.17,0-2-1.36-2.49.55-2.48,18.69.07,37.38,0,56.07.1,6.84.06,11.58,4.46,11.76,11.39.38,14.67.2,29.35.39,44,0,2.55-1.3,2.42-3.05,2.41Q62.65,62.23,48.4,62.26Z"/><path class="cls-2" d="M52.66,88.11c-9.8,0-19.6,0-29.4,0-9.49,0-15.71-8.54-13.19-17.76C10.7,68,12.43,69,13.67,69c13.36-.08,26.73,0,40.09,0,6.24,0,12.48.14,18.72,0,11.53-.29,15.27,7.3,14.28,17.6-.24,2.62-2.17,1.53-3.36,1.54C73.16,88.14,62.91,88.11,52.66,88.11Z"/><path class="cls-1" d="M48.9,56c-6.39,0-12.78,0-19.16,0-8.86,0-14-4.66-14.25-13.39-.25-9.65,0-19.31-.1-29,0-2.11.63-2.89,2.77-2.88,14.41.07,28.82-.12,43.22.14,7.41.14,11.95,5.14,12,12.56.1,9.8-.06,19.61.09,29.41,0,2.55-.73,3.24-3.22,3.18C63.15,55.91,56,56,48.9,56Z"/><path class="cls-1" d="M15.22,72.06H41.8q14.69,0,29.37,0c2,0,4.18-.38,5.22,2.17C65.55,76.08,18.15,75,15.22,72.06Z"/></svg>