<svg id="Layer_1" data-name="Layer 1" xmlns="http://www.w3.org/2000/svg" viewBox="0 0 554.45 100"><defs><style>.cls-1{fill:#343a40;}.cls-2{fill:#fff;}</style></defs><title>logo</title><rect class="cls-1" width="554.45" height="100"/><path class="cls-2" d="M50.09,67.64c-9.41,0-18.82,0-28.23,0-8.2,0-13.7-5-13.83-13.18C7.77,39,8,23.5,7.89,8c0-2.13.69-2.67,2.75-2.67,20.09.07,40.19-.05,60.29.11,7.35.06,12.44,4.8,12.64,12.24.41,15.78.22,31.57.43,47.35,0,2.74-1.41,2.6-3.28,2.6C70.51,67.62,60.3,67.64,50.09,67.64Z"/><path class="cls-2" d="M54.67,95.44c-10.53,0-21.07,0-31.61,0-10.2-.05-16.89-9.18-14.19-19.1.69-2.51,2.55-1.46,3.88-1.47,14.37-.08,28.74,0,43.11,0,6.7,0,13.41.16,20.12,0,12.4-.31,16.42,7.85,15.36,18.93-.27,2.81-2.34,1.64-3.61,1.65C76.71,95.47,65.69,95.43,54.67,95.44Z"/><path class="cls-2" d="M294.39,58.6c3.88.93,6.89,1.43,9.75,2.39,5.72,1.94,10.82,4.82,11.72,11.56,1,7.41-1.57,13.5-7.86,17.72-5.63,3.78-12.13,5-18.72,5.2-8.35.26-16.72.06-26.19.06,4-4.32,3.32-9,3.32-13.62,0-13.44-.38-26.9.17-40.31.27-6.4-.57-11-7.63-12.33-.9-.17-1.85-.78-1.57-3.32,15.32.71,30.86-2,46.19,2.4,5.88,1.68,9.6,5.64,9.93,11.95S310.86,51,305.35,53.68C302,55.32,298.58,56.73,294.39,58.6Z"/><path class="cls-2" d="M98,94.45c9.88-16,20.36-31.38,29.06-47.77,1.29-2.43,2.74-4.77,4.09-7.17,2.32-4.15,4.62-8.27-3.5-7.77-1.58.1-3.21-.33-2.93-2.45.19-1.52,1.51-1.81,2.87-1.81,5.33,0,10.66.13,16-.05,4.18-.14,3.91,3.31,4.67,5.63,4.68,14.34,7.63,29.24,13.48,43.2,2.6,6.22,3.87,14.45,14,12.43.43-.08,1.27.64,1.52,1.18.61,1.29-.62,1.89-1.41,2.21-4.9,2-9.72,4.32-15.16,4.36a8.23,8.23,0,0,1-8.21-5.63c-1-2.57-1.59-5.3-2.6-7.86-1.83-4.68-1.1-12.44-5-13.67-6.7-2.12-14.5-.77-21.85-.9-2.38,0-2.74,2-3.43,3.5-2,4.32-4.61,8.59-5.57,13.17C112.08,94.09,106.42,95.76,98,94.45Z"/><path class="cls-2" d="M354,64.07c0-9.13-.2-18.26.09-27.38.13-4-1-5.43-5.11-5-4.51.49-9.09.35-13.63.66-2.66.19-4.22-.13-4.3-3.46-.09-3.65,2-3.25,4.33-3.24,16.72.07,33.45.72,50.17-.38,2.16-.14,4.77-.67,4.92,2.91.17,4-2.56,3.6-5.14,3.51-.5,0-1,0-1.52,0-17.62,0-17.81,0-17.55,17.4.18,12.91,1,25.81,1.41,38.72.12,4-10.29,9.75-13.56,7.69-2-1.25-.87-3.2-.88-4.85,0-8.86,0-17.72,0-26.58Z"/><path class="cls-2" d="M441,86c-10.5,7-19,12.89-30.63,9.94-5.89-1.49-10-4.65-12.51-9.89-4.46-9.16-1.91-23.38,5.39-31.08a28.07,28.07,0,0,1,29.94-6.68c3.25,1.26,5.91,3.17,7.35,6.18,2.37,4.94,2.62,9.12-4.29,10.93-8.23,2.16-16.25,5.17-24.47,7.43-4.25,1.16-5,2.89-3.43,7,3.34,8.84,10.21,12,20.07,9.21C431.93,88,434.73,84.81,441,86Z"/><path class="cls-2" d="M210.87,59.35c.56-1.38,1.09-2.79,1.7-4.15,1.67-3.8,3.89-8.27,8.26-7.7,3.57.47,2.4,5.61,3.19,8.57,2.23,8.3,4.91,16.41,7.62,24.56,1.67,5,3.3,3.83,6.16,1.41,8.78-7.44,11.09-15.14,6.16-25.47-2.75-5.75,1.82-6.53,4.42-8.57,3.31-2.61,5,.27,6.42,2.73,2.83,4.79,2.42,9.74.06,14.49-5.64,11.3-14.6,20-23.45,28.66-3.9,3.82-6.68,1.16-7.91-2.62-2.95-9.09-5.43-18.34-8.1-27.53C215.16,61,210.81,62.44,210.87,59.35Z"/><path class="cls-2" d="M487.93,83.22c-3.62,8.57-16,14-27,12.55-7.44-1-12.67-6.89-14-15.72-3-20.67,10.89-35.86,30.26-33.09,2.85.41,5.5,1.16,7.55,3.12s4.37,4.38,3,7.21c-1.4,3-4.85,4.34-7.91,5.22-2.77.8-2.13-1.93-2.43-3.51-.85-4.5-2.68-8.56-7.84-8.79-5.4-.24-7.93,3.58-9.29,8.32-1.75,6.08-3.41,12-1.58,18.54,3.16,11.3,10.31,15.06,21,10.32C482.38,86.23,484.88,84.78,487.93,83.22Z"/><path class="cls-2" d="M510.93,54.56c-3.18,2-4.92,4.3-4.67,8.55.48,8.09.11,16.24.16,24.37,0,4.53-4.7,8.93-8.86,8-3.09-.67-1.76-3.26-1.77-5-.07-15.23-.14-30.47.14-45.7.12-7,.2-13.42-9.79-14.35,6.27-1.89,12-3.59,18.15-3.24,2.85.16,2.06,2.39,2.08,4,.08,6.09,0,12.19,0,18.28,0,1.74-.41,3.78,2.48,3.39C510.74,52,510.93,53.18,510.93,54.56Z"/><path class="cls-2" d="M210.87,59.35c2.26.69,4.83,1,4.53,4.38-2.52-2.6-3.23-.1-4.21,1.52C206,73.89,200.8,82.51,195.68,91.19c-1.6,2.72-3.29,5.15-7,4.64-4.4-.6-2.34-4.42-2.71-6.52-1.29-7.44-1.65-15-2.67-22.54C181.85,55.9,180,54.53,169.23,56c1.3-3.22,4.27-4.32,6.54-5.83,9-6,14.7-3.51,16.32,7.08,1.18,7.72,2.21,15.46,3.47,24.32C202.53,74.53,205.34,66,210.87,59.35Z"/><path class="cls-2" d="M510.93,54.56l-2.05-1.66a9.28,9.28,0,0,1,1.73-1.38c6.8-3.17,13.89-8.07,21.31-3.46,7.2,4.47,4.75,12.61,4.68,19.55,0,2-.26,4.06-.36,6.08-.61,12.14,0,12.76,11.35,12.18a17.81,17.81,0,0,1-7.72,8.19c-6.77,4-12.86,1.12-13.52-6.8-.56-6.78-.15-13.64-.15-20.47C526.19,53.54,523.38,51.29,510.93,54.56Z"/><path class="cls-1" d="M50.62,60.93c-6.86,0-13.73,0-20.6,0-9.53,0-15.08-5-15.32-14.4-.26-10.37,0-20.75-.1-31.13,0-2.27.67-3.11,3-3.1,15.49.08,31-.13,46.46.15C72,12.58,76.9,18,77,26c.11,10.54-.07,21.08.09,31.61.05,2.75-.77,3.49-3.45,3.43C66,60.82,58.29,60.93,50.62,60.93Z"/><path class="cls-1" d="M14.42,78.18H43q15.8,0,31.58,0c2.14,0,4.49-.41,5.62,2.33C68.53,82.5,17.56,81.31,14.42,78.18Z"/><path class="cls-1" d="M284.49,91.27c-4.16.55-5.54-1.6-5.54-5.29,0-7.07-.06-14.13,0-21.19,0-1.6-.5-4.2,2.15-3.91,6.39.71,13.12.57,17.9,6.25,3.95,4.69,3.83,9.63,1.37,14.72C297.19,88.47,291.19,90.59,284.49,91.27Z"/><path class="cls-1" d="M278.93,44a8.08,8.08,0,0,1,.05-2.26c1.27-3.78-3.2-9.6,3.19-11.38,7.33-2,15.08,1.51,17.32,7a13.54,13.54,0,0,1-5.29,16.42c-3.26,2.13-7,2.51-10.65,3.54-4.07,1.16-4.82-.79-4.66-4.22C279,50.07,278.92,47,278.93,44Z"/><path class="cls-1" d="M136.47,39.63c2.92,9.18,5.17,16.27,7.57,23.83H124.42Z"/><path class="cls-1" d="M430.14,59.89c.24,1.39-.14,2.86-1.33,3.3q-9.57,3.48-19.3,6.58c-1.58.51-2-.78-2.18-2.21-.72-5.62,4.62-14.39,10.11-16.4A9.4,9.4,0,0,1,430.14,59.89Z"/></svg>